<svg width="250" height="65" viewBox="0 0 250 65" fill="none" xmlns="http://www.w3.org/2000/svg">
<path d="M0 1.67112H14.4766V63.2639H0V1.67112ZM40.4874 28.7075C40.4874 23.8533 39.4477 20.1132 37.3684 17.4871C35.2891 14.8611 32.3663 13.548 28.6001 13.548C26.0108 13.548 23.6372 14.1847 21.4795 15.4579C19.3217 16.7311 17.6151 18.7007 16.3597 21.3665C15.1043 24.0323 14.4766 27.3348 14.4766 31.2739L12.7111 20.4713V10.7429H16.3597L12.7111 20.4713C12.7111 16.4128 13.5939 12.8517 15.3593 9.78801C17.1247 6.72428 19.5571 4.33696 22.6564 2.62605C25.795 0.87535 29.3847 0 33.4256 0C37.9373 0 41.8016 1.0544 45.0186 3.1632C48.2749 5.272 50.7465 8.29593 52.4335 12.235C54.1204 16.1741 54.9639 20.8691 54.9639 26.3202V63.2639H40.4874V28.7075Z" fill="#151618"/>
<path d="M93.6317 64.9351C87.7077 64.9351 82.3329 63.5226 77.5074 60.6976C72.6818 57.8726 68.8764 53.9733 66.0909 48.9997C63.3054 44.0261 61.9127 38.5154 61.9127 32.4675C61.9127 26.3401 63.3054 20.8095 66.0909 15.8757C68.8764 10.9419 72.6818 7.06248 77.5074 4.23749C82.3329 1.4125 87.7077 0 93.6317 0C99.6342 0 105.048 1.4125 109.874 4.23749C114.699 7.06248 118.485 10.9419 121.231 15.8757C123.978 20.8095 125.351 26.3401 125.351 32.4675C125.351 38.5154 123.978 44.0261 121.231 48.9997C118.485 53.9733 114.699 57.8726 109.874 60.6976C105.048 63.5226 99.6342 64.9351 93.6317 64.9351ZM93.6317 51.387C97.0449 51.387 100.085 50.5913 102.753 48.9997C105.46 47.3684 107.539 45.1203 108.991 42.2555C110.482 39.3908 111.227 36.1281 111.227 32.4675C111.227 28.7672 110.482 25.4846 108.991 22.6198C107.539 19.7551 105.46 17.5269 102.753 15.9354C100.085 14.3438 97.0449 13.548 93.6317 13.548C90.2185 13.548 87.1781 14.3438 84.5103 15.9354C81.8818 17.5269 79.8025 19.7551 78.2724 22.6198C76.7816 25.4846 76.0362 28.7672 76.0362 32.4675C76.0362 36.1281 76.7816 39.3908 78.2724 42.2555C79.8025 45.1203 81.8818 47.3684 84.5103 48.9997C87.1781 50.5913 90.2185 51.387 93.6317 51.387Z" fill="#151618"/>
<path d="M173.611 1.67112H188.911L165.019 63.2639H151.366L173.611 1.67112ZM124.355 1.67112H139.714L161.959 63.2639L153.838 47.8061H161.959V63.2639H148.306L124.355 1.67112Z" fill="#151618"/>
<path d="M239.702 32.4675C239.702 39.5897 238.78 45.558 236.936 50.3724C235.131 55.1868 232.503 58.8275 229.05 61.2944C225.598 63.7215 221.42 64.9351 216.516 64.9351C211.062 64.9351 206.158 63.5226 201.804 60.6976C197.488 57.8726 194.094 53.9932 191.623 49.0594C189.191 44.0858 187.974 38.5552 187.974 32.4675C187.974 26.3401 189.191 20.8095 191.623 15.8757C194.094 10.9419 197.488 7.06248 201.804 4.23749C206.158 1.4125 211.062 0 216.516 0C221.42 0 225.598 1.21355 229.05 3.64066C232.503 6.06777 235.131 9.70843 236.936 14.5626C238.78 19.3771 239.702 25.3454 239.702 32.4675L233.699 10.5042H241.114V54.4309H233.699L239.702 32.4675ZM219.281 51.387C222.538 51.387 225.421 50.5913 227.932 48.9997C230.482 47.3684 232.463 45.1203 233.876 42.2555C235.327 39.3908 236.053 36.1281 236.053 32.4675C236.053 28.7672 235.327 25.4846 233.876 22.6198C232.463 19.7551 230.482 17.5269 227.932 15.9354C225.421 14.3438 222.538 13.548 219.281 13.548C216.064 13.548 213.181 14.3438 210.631 15.9354C208.12 17.5269 206.139 19.7551 204.687 22.6198C203.275 25.4846 202.569 28.7672 202.569 32.4675C202.569 36.0883 203.275 39.351 204.687 42.2555C206.139 45.1203 208.12 47.3684 210.631 48.9997C213.181 50.5913 216.064 51.387 219.281 51.387ZM235.582 63.2639V50.8499L238.23 32.4675L235.582 16.1144V1.67112H250V63.2639H235.582Z" fill="#151618"/>
</svg>
