<svg width="16" height="16" viewBox="0 0 16 16" fill="curretColor" xmlns="http://www.w3.org/2000/svg">
<path fill-rule="evenodd" clip-rule="evenodd" d="M8.00491 1.57334C4.46294 1.57334 1.59961 4.45778 1.59961 8.02623C1.59961 10.8787 3.43425 13.2932 5.97937 14.1478C6.29758 14.212 6.41414 14.009 6.41414 13.8381C6.41414 13.6885 6.40365 13.1757 6.40365 12.6415C4.62185 13.0261 4.2508 11.8722 4.2508 11.8722C3.96446 11.1244 3.54018 10.9322 3.54018 10.9322C2.957 10.5369 3.58266 10.5369 3.58266 10.5369C4.22956 10.5796 4.56901 11.1992 4.56901 11.1992C5.14157 12.1821 6.0642 11.9044 6.43538 11.7334C6.48834 11.3167 6.65813 11.0283 6.83841 10.8681C5.4173 10.7185 3.92211 10.1629 3.92211 7.68429C3.92211 6.97918 4.17646 6.40229 4.5795 5.95363C4.51591 5.79341 4.29315 5.13091 4.64322 4.2442C4.64322 4.2442 5.18405 4.07323 6.40352 4.90658C6.92561 4.76532 7.46404 4.69347 8.00491 4.69286C8.54574 4.69286 9.09706 4.76773 9.60616 4.90658C10.8258 4.07323 11.3666 4.2442 11.3666 4.2442C11.7167 5.13091 11.4938 5.79341 11.4302 5.95363C11.8438 6.40229 12.0877 6.97918 12.0877 7.68429C12.0877 10.1629 10.5925 10.7077 9.16078 10.8681C9.39416 11.071 9.59554 11.4556 9.59554 12.0646C9.59554 12.9299 9.58505 13.6244 9.58505 13.838C9.58505 14.009 9.70174 14.212 10.0198 14.1479C12.5649 13.2931 14.3996 10.8787 14.3996 8.02623C14.4101 4.45778 11.5362 1.57334 8.00491 1.57334Z" fill="curretColor" fill-opacity="0.72"/>
</svg>
