<svg width="16" height="16" viewBox="0 0 16 16" fill="none" xmlns="http://www.w3.org/2000/svg">
<path d="M7.96777 6.83633V9.31488H11.4121C11.2609 10.112 10.807 10.7869 10.1263 11.2407L12.2034 12.8524C13.4136 11.7353 14.1117 10.0946 14.1117 8.14548C14.1117 7.69167 14.071 7.25527 13.9954 6.8364L7.96777 6.83633Z" fill="#4285F4"/>
<path d="M4.38155 9.21813L3.91309 9.57673L2.25488 10.8683C3.30797 12.9571 5.46636 14.4 7.96815 14.4C9.69611 14.4 11.1448 13.8298 12.2038 12.8524L10.1267 11.2407C9.55649 11.6247 8.82921 11.8575 7.96815 11.8575C6.30416 11.8575 4.89039 10.7346 4.38417 9.22182L4.38155 9.21813Z" fill="#34A853"/>
<path d="M2.25485 5.13164C1.81852 5.99269 1.56836 6.96434 1.56836 7.99996C1.56836 9.03558 1.81852 10.0072 2.25485 10.8683C2.25485 10.8741 4.38435 9.21593 4.38435 9.21593C4.25635 8.83193 4.18069 8.42468 4.18069 7.9999C4.18069 7.57511 4.25635 7.16787 4.38435 6.78387L2.25485 5.13164Z" fill="#FBBC05"/>
<path d="M7.96829 4.14836C8.91084 4.14836 9.74865 4.47417 10.4177 5.10254L12.2504 3.26984C11.1392 2.23422 9.69631 1.6 7.96829 1.6C5.46649 1.6 3.30797 3.03709 2.25488 5.13164L4.38431 6.784C4.89046 5.27126 6.3043 4.14836 7.96829 4.14836Z" fill="#EA4335"/>
</svg>
