<svg width="16" height="16" viewBox="0 0 16 16" fill="currentColor" xmlns="http://www.w3.org/2000/svg">
<path d="M8 2.44857C4.68615 2.44857 2 4.56645 2 7.17934C2 8.86857 3.12327 10.3524 4.8125 11.1878C4.72077 11.5045 4.22173 13.2266 4.20212 13.3622C4.20212 13.3622 4.19 13.4638 4.25577 13.5024C4.27777 13.5135 4.30181 13.52 4.32642 13.5215C4.35102 13.523 4.37566 13.5194 4.39885 13.5111C4.58808 13.4845 6.59115 12.0797 6.93731 11.838C7.28941 11.8869 7.64452 11.911 8 11.9101C11.3138 11.9101 14 9.79222 14 7.17934C14 4.56645 11.3138 2.44857 8 2.44857Z" fill="curretColor"/>
</svg>
