<svg width="current" height="current" viewBox="0 0 69 18" fill="currentColor" xmlns="http://www.w3.org/2000/svg">
<path d="M0 0.451172H3.96387V17.0801H0V0.451172ZM11.0859 7.75049C11.0859 6.43994 10.8013 5.43018 10.2319 4.72119C9.6626 4.01221 8.8623 3.65771 7.83105 3.65771C7.12207 3.65771 6.47217 3.82959 5.88135 4.17334C5.29053 4.51709 4.82324 5.04883 4.47949 5.76855C4.13574 6.48828 3.96387 7.37988 3.96387 8.44336L3.48047 5.52686V2.90039H4.47949L3.48047 5.52686C3.48047 4.43115 3.72217 3.46973 4.20557 2.64258C4.68896 1.81543 5.35498 1.1709 6.20361 0.708984C7.06299 0.236328 8.0459 0 9.15234 0C10.3877 0 11.4458 0.284668 12.3267 0.854004C13.2183 1.42334 13.895 2.23975 14.3569 3.30322C14.8188 4.3667 15.0498 5.63428 15.0498 7.10596V17.0801H11.0859V7.75049Z" fill="currentColor"/>
<path d="M25.6375 17.5312C24.0154 17.5312 22.5438 17.1499 21.2225 16.3872C19.9012 15.6245 18.8592 14.5718 18.0965 13.229C17.3338 11.8862 16.9525 10.3984 16.9525 8.76562C16.9525 7.11133 17.3338 5.61816 18.0965 4.28613C18.8592 2.9541 19.9012 1.90674 21.2225 1.14404C22.5438 0.381348 24.0154 0 25.6375 0C27.2811 0 28.7635 0.381348 30.0848 1.14404C31.4061 1.90674 32.4427 2.9541 33.1946 4.28613C33.9466 5.61816 34.3226 7.11133 34.3226 8.76562C34.3226 10.3984 33.9466 11.8862 33.1946 13.229C32.4427 14.5718 31.4061 15.6245 30.0848 16.3872C28.7635 17.1499 27.2811 17.5312 25.6375 17.5312ZM25.6375 13.8735C26.5721 13.8735 27.4046 13.6587 28.1351 13.229C28.8763 12.7886 29.4456 12.1816 29.8431 11.4082C30.2513 10.6348 30.4554 9.75391 30.4554 8.76562C30.4554 7.7666 30.2513 6.88037 29.8431 6.10693C29.4456 5.3335 28.8763 4.73193 28.1351 4.30225C27.4046 3.87256 26.5721 3.65771 25.6375 3.65771C24.7029 3.65771 23.8704 3.87256 23.14 4.30225C22.4202 4.73193 21.8509 5.3335 21.432 6.10693C21.0238 6.88037 20.8196 7.7666 20.8196 8.76562C20.8196 9.75391 21.0238 10.6348 21.432 11.4082C21.8509 12.1816 22.4202 12.7886 23.14 13.229C23.8704 13.6587 24.7029 13.8735 25.6375 13.8735Z" fill="currentColor"/>
<path d="M47.5368 0.451172H51.7262L45.1842 17.0801H41.4459L47.5368 0.451172ZM34.0499 0.451172H38.2555L44.3463 17.0801L42.1227 12.9067H44.3463V17.0801H40.608L34.0499 0.451172Z" fill="currentColor"/>
<path d="M65.6333 8.76562C65.6333 10.6885 65.3808 12.2998 64.8759 13.5996C64.3818 14.8994 63.6621 15.8823 62.7168 16.5483C61.7714 17.2036 60.6274 17.5312 59.2846 17.5312C57.7915 17.5312 56.4487 17.1499 55.2563 16.3872C54.0747 15.6245 53.1455 14.5771 52.4687 13.2451C51.8027 11.9023 51.4697 10.4092 51.4697 8.76562C51.4697 7.11133 51.8027 5.61816 52.4687 4.28613C53.1455 2.9541 54.0747 1.90674 55.2563 1.14404C56.4487 0.381348 57.7915 0 59.2846 0C60.6274 0 61.7714 0.327637 62.7168 0.98291C63.6621 1.63818 64.3818 2.62109 64.8759 3.93164C65.3808 5.23145 65.6333 6.84277 65.6333 8.76562L63.9897 2.83594H66.02V14.6953H63.9897L65.6333 8.76562ZM60.042 13.8735C60.9336 13.8735 61.7231 13.6587 62.4106 13.229C63.1088 12.7886 63.6513 12.1816 64.038 11.4082C64.4355 10.6348 64.6342 9.75391 64.6342 8.76562C64.6342 7.7666 64.4355 6.88037 64.038 6.10693C63.6513 5.3335 63.1088 4.73193 62.4106 4.30225C61.7231 3.87256 60.9336 3.65771 60.042 3.65771C59.1611 3.65771 58.3715 3.87256 57.6733 4.30225C56.9858 4.73193 56.4433 5.3335 56.0459 6.10693C55.6591 6.88037 55.4658 7.7666 55.4658 8.76562C55.4658 9.74316 55.6591 10.624 56.0459 11.4082C56.4433 12.1816 56.9858 12.7886 57.6733 13.229C58.3715 13.6587 59.1611 13.8735 60.042 13.8735ZM64.5053 17.0801V13.7285L65.2304 8.76562L64.5053 4.35059V0.451172H68.4531V17.0801H64.5053Z" fill="currentColor"/>
</svg>
