<svg width="20" height="20" viewBox="0 0 20 20" fill="none" xmlns="http://www.w3.org/2000/svg">
<path fill-rule="evenodd" clip-rule="evenodd" d="M10.0066 1.9668C5.57917 1.9668 2 5.57235 2 10.0329C2 13.5985 4.29329 16.6166 7.4747 17.6849C7.87246 17.7652 8.01816 17.5113 8.01816 17.2978C8.01816 17.1108 8.00505 16.4698 8.00505 15.802C5.7778 16.2828 5.31399 14.8404 5.31399 14.8404C4.95606 13.9056 4.42572 13.6653 4.42572 13.6653C3.69674 13.1712 4.47882 13.1712 4.47882 13.1712C5.28744 13.2246 5.71175 13.9992 5.71175 13.9992C6.42745 15.2277 7.58074 14.8806 8.04471 14.6669C8.11092 14.146 8.32315 13.7855 8.5485 13.5852C6.77211 13.3982 4.90312 12.7038 4.90312 9.60549C4.90312 8.72409 5.22107 8.00298 5.72486 7.44216C5.64538 7.24188 5.36693 6.41375 5.80451 5.30537C5.80451 5.30537 6.48055 5.09166 8.00488 6.13334C8.6575 5.95678 9.33054 5.86696 10.0066 5.8662C10.6827 5.8662 11.3718 5.95978 12.0082 6.13334C13.5327 5.09166 14.2087 5.30537 14.2087 5.30537C14.6463 6.41375 14.3677 7.24188 14.2882 7.44216C14.8053 8.00298 15.1101 8.72409 15.1101 9.60549C15.1101 12.7038 13.2411 13.3848 11.4515 13.5852C11.7432 13.8389 11.9949 14.3196 11.9949 15.0808C11.9949 16.1625 11.9818 17.0306 11.9818 17.2976C11.9818 17.5113 12.1277 17.7652 12.5253 17.685C15.7067 16.6165 18 13.5985 18 10.0329C18.0131 5.57235 14.4208 1.9668 10.0066 1.9668Z" fill="#151618"/>
</svg>
