<svg width="20" height="20" viewBox="0 0 20 20" fill="none" xmlns="http://www.w3.org/2000/svg">
<path d="M17.5658 8.76714L17.4851 8.42464H10.0408V11.5754H14.4887C14.0269 13.7682 11.8841 14.9225 10.1337 14.9225C8.86013 14.9225 7.51763 14.3868 6.62906 13.5257C6.16025 13.0642 5.78708 12.5147 5.53091 11.9087C5.27475 11.3027 5.14062 10.6522 5.1362 9.99429C5.1362 8.66714 5.73263 7.33964 6.60049 6.46643C7.46834 5.59321 8.77906 5.10464 10.0823 5.10464C11.5748 5.10464 12.6444 5.89714 13.0444 6.25857L15.2833 4.03143C14.6266 3.45429 12.8223 2 10.0101 2C7.84049 2 5.76013 2.83107 4.23941 4.34679C2.7387 5.83929 1.96191 7.9975 1.96191 10C1.96191 12.0025 2.69691 14.0529 4.1512 15.5571C5.70513 17.1614 7.90584 18 10.1719 18C12.2337 18 14.188 17.1921 15.5808 15.7264C16.9501 14.2836 17.6583 12.2871 17.6583 10.1943C17.6583 9.31321 17.5698 8.79 17.5658 8.76714Z" fill="#151618"/>
</svg>
