<svg width="20" height="20" viewBox="0 0 20 20" fill="none" xmlns="http://www.w3.org/2000/svg">
<path d="M10 3.06055C5.85769 3.06055 2.5 5.7079 2.5 8.97401C2.5 11.0855 3.90409 12.9404 6.01562 13.9846C5.90096 14.3805 5.27716 16.5331 5.25264 16.7026C5.25264 16.7026 5.2375 16.8295 5.31971 16.8779C5.34722 16.8917 5.37727 16.8998 5.40802 16.9017C5.43877 16.9036 5.46958 16.8991 5.49856 16.8887C5.7351 16.8555 8.23894 15.0995 8.67163 14.7973C9.11177 14.8584 9.55565 14.8886 10 14.8875C14.1423 14.8875 17.5 12.2401 17.5 8.97401C17.5 5.7079 14.1423 3.06055 10 3.06055Z" fill="#151618"/>
</svg>
